ply
format ascii 1.0
comment Created in Blender version 4.1.0
element vertex 64
property float x
property float y
property float z
element face 124
property list uchar uint vertex_indices
end_header
-0.90001076 -2.0283504 -0.6186312
-0.8999928 -2.0232267 -0.17866099
-0.9198906 -2.218235 -0.17638928
-0.9199085 -2.2233584 -0.6163595
-0.9774529 -2.4056149 -0.17420489
-0.97747076 -2.4107385 -0.6141751
-1.0704665 -2.578166 -0.17219174
-1.0704844 -2.5832894 -0.61216193
-1.1953592 -2.7292564 -0.17042714
-1.1953771 -2.7343798 -0.6103974
-1.3473306 -2.8530793 -0.16897905
-1.3473485 -2.858203 -0.60894924
-1.52054 -2.9448774 -0.167903
-1.5205579 -2.9500008 -0.6078732
-1.7083311 -3.0011215 -0.16724038
-1.708349 -3.0062451 -0.6072106
-1.9034872 -3.0196521 -0.16701663
-1.9035051 -3.0247755 -0.6069868
-2.0985086 -2.9997556 -0.16724038
-2.0985267 -3.0048792 -0.6072106
-2.2859023 -2.942198 -0.167903
-2.2859204 -2.9473214 -0.6078732
-2.4584637 -2.8491895 -0.16897905
-2.4584818 -2.8543131 -0.60894924
-2.6095645 -2.7243054 -0.17042714
-2.6095827 -2.729429 -0.6103974
-2.7333963 -2.5723443 -0.17219174
-2.7334144 -2.577468 -0.61216193
-2.8251994 -2.3991466 -0.17420489
-2.8252175 -2.40427 -0.6141751
-2.8814483 -2.211368 -0.17638928
-2.8814664 -2.2164915 -0.6163595
-2.8999805 -2.0162253 -0.17866099
-2.8999987 -2.0213487 -0.6186312
-2.8800826 -1.8212171 -0.1809327
-2.8801007 -1.8263406 -0.62090284
-2.82252 -1.633836 -0.18311709
-2.8225381 -1.6389595 -0.62308735
-2.7295067 -1.4612863 -0.1851303
-2.7295249 -1.4664098 -0.62510043
-2.604614 -1.3101959 -0.18689483
-2.6046321 -1.3153194 -0.62686497
-2.4526424 -1.1863725 -0.18834293
-2.4526606 -1.191496 -0.6283131
-2.279434 -1.0945746 -0.18941903
-2.279452 -1.0996981 -0.6293892
-2.0916421 -1.0383306 -0.19008166
-2.0916603 -1.043454 -0.6300518
-1.8964863 -1.0198 -0.19030535
-1.8965042 -1.0249234 -0.63027555
-1.7014647 -1.0396965 -0.19008166
-1.7014825 -1.04482 -0.6300518
-1.514072 -1.0972539 -0.18941903
-1.5140898 -1.1023774 -0.6293892
-1.3415095 -1.1902623 -0.18834293
-1.3415273 -1.1953858 -0.6283131
-1.1904087 -1.3151467 -0.18689483
-1.1904266 -1.3202702 -0.62686497
-1.066577 -1.4671078 -0.1851303
-1.0665948 -1.4722313 -0.62510043
-0.97477376 -1.6403046 -0.18311709
-0.97479165 -1.6454281 -0.62308735
-0.91852474 -1.828084 -0.1809327
-0.9185427 -1.8332075 -0.62090284
3 1 3 0
3 2 5 3
3 4 7 5
3 6 9 7
3 8 11 9
3 10 13 11
3 12 15 13
3 14 17 15
3 16 19 17
3 18 21 19
3 20 23 21
3 22 25 23
3 24 27 25
3 26 29 27
3 28 31 29
3 30 33 31
3 32 35 33
3 34 37 35
3 36 39 37
3 38 41 39
3 40 43 41
3 42 45 43
3 44 47 45
3 46 49 47
3 48 51 49
3 50 53 51
3 52 55 53
3 54 57 55
3 56 59 57
3 58 61 59
3 4 52 36
3 60 63 61
3 62 0 63
3 31 47 63
3 1 2 3
3 2 4 5
3 4 6 7
3 6 8 9
3 8 10 11
3 10 12 13
3 12 14 15
3 14 16 17
3 16 18 19
3 18 20 21
3 20 22 23
3 22 24 25
3 24 26 27
3 26 28 29
3 28 30 31
3 30 32 33
3 32 34 35
3 34 36 37
3 36 38 39
3 38 40 41
3 40 42 43
3 42 44 45
3 44 46 47
3 46 48 49
3 48 50 51
3 50 52 53
3 52 54 55
3 54 56 57
3 56 58 59
3 58 60 61
3 4 2 1
3 1 62 4
3 62 60 4
3 60 58 56
3 56 54 60
3 54 52 60
3 52 50 48
3 48 46 44
3 44 42 36
3 42 40 36
3 40 38 36
3 36 34 28
3 34 32 28
3 32 30 28
3 28 26 24
3 24 22 28
3 22 20 28
3 20 18 16
3 16 14 12
3 12 10 4
3 10 8 4
3 8 6 4
3 52 48 36
3 48 44 36
3 20 16 4
3 16 12 4
3 4 60 52
3 36 28 4
3 28 20 4
3 60 62 63
3 62 1 0
3 63 0 3
3 3 5 63
3 5 7 63
3 7 9 11
3 11 13 15
3 15 17 19
3 19 21 23
3 23 25 27
3 27 29 23
3 29 31 23
3 31 33 35
3 35 37 39
3 39 41 43
3 43 45 47
3 47 49 51
3 51 53 55
3 55 57 59
3 59 61 55
3 61 63 55
3 7 11 15
3 15 19 31
3 19 23 31
3 31 35 47
3 35 39 47
3 39 43 47
3 47 51 63
3 51 55 63
3 63 7 15
3 63 15 31
