ply
format ascii 1.0
comment Created in Blender version 4.1.0
element vertex 64
property float x
property float y
property float z
element face 124
property list uchar uint vertex_indices
end_header
-0.8999458 -2.0097978 0.9745139
-0.89992785 -2.0046744 1.414484
-0.9198256 -2.1996827 1.4167557
-0.91984355 -2.204806 0.9767856
-0.9773879 -2.3870625 1.4189401
-0.9774059 -2.3921862 0.97897
-1.0704015 -2.5596135 1.4209533
-1.0704195 -2.564737 0.98098314
-1.1952943 -2.7107038 1.4227178
-1.1953123 -2.7158275 0.98274773
-1.3472656 -2.834527 1.424166
-1.3472836 -2.8396506 0.9841958
-1.520475 -2.926325 1.4252422
-1.520493 -2.9314485 0.9852719
-1.7082661 -2.9825692 1.4259048
-1.7082841 -2.9876928 0.9859345
-1.9034222 -3.0010998 1.4261284
-1.9034402 -3.0062232 0.98615825
-2.0984437 -2.9812033 1.4259048
-2.0984616 -2.986327 0.9859345
-2.2858374 -2.9236457 1.4252422
-2.2858553 -2.928769 0.9852719
-2.4583988 -2.8306372 1.424166
-2.4584167 -2.8357608 0.9841958
-2.6094997 -2.705753 1.4227178
-2.6095176 -2.7108767 0.98274773
-2.7333314 -2.553792 1.4209533
-2.7333493 -2.5589156 0.98098314
-2.8251345 -2.380594 1.4189401
-2.8251524 -2.3857176 0.97897
-2.8813834 -2.1928158 1.4167557
-2.8814013 -2.1979392 0.9767856
-2.8999157 -1.9976729 1.414484
-2.8999336 -2.0027964 0.9745139
-2.8800178 -1.8026648 1.4122124
-2.8800356 -1.8077883 0.9722422
-2.8224552 -1.6152837 1.410028
-2.822473 -1.6204072 0.9700578
-2.729442 -1.4427339 1.4080148
-2.7294598 -1.4478574 0.9680446
-2.6045492 -1.2916436 1.4062502
-2.604567 -1.2967671 0.96628004
-2.4525776 -1.1678202 1.4048021
-2.4525955 -1.1729437 0.96483195
-2.279369 -1.0760223 1.4037261
-2.279387 -1.0811458 0.96375585
-2.0915773 -1.0197783 1.4030635
-2.0915952 -1.0249017 0.9630932
-1.8964213 -1.0012476 1.4028397
-1.8964393 -1.0063711 0.9628695
-1.7013997 -1.0211442 1.4030635
-1.7014177 -1.0262676 0.9630932
-1.514007 -1.0787016 1.4037261
-1.514025 -1.0838251 0.96375585
-1.3414445 -1.17171 1.4048021
-1.3414625 -1.1768335 0.96483195
-1.1903437 -1.2965944 1.4062502
-1.1903617 -1.3017179 0.96628004
-1.066512 -1.4485555 1.4080148
-1.06653 -1.453679 0.9680446
-0.9747088 -1.6217523 1.410028
-0.9747268 -1.6268758 0.9700578
-0.9184598 -1.8095317 1.4122124
-0.9184777 -1.8146552 0.9722422
3 1 3 0
3 2 5 3
3 4 7 5
3 6 9 7
3 8 11 9
3 10 13 11
3 12 15 13
3 14 17 15
3 16 19 17
3 18 21 19
3 20 23 21
3 22 25 23
3 24 27 25
3 26 29 27
3 28 31 29
3 30 33 31
3 32 35 33
3 34 37 35
3 36 39 37
3 38 41 39
3 40 43 41
3 42 45 43
3 44 47 45
3 46 49 47
3 48 51 49
3 50 53 51
3 52 55 53
3 54 57 55
3 56 59 57
3 58 61 59
3 4 52 36
3 60 63 61
3 62 0 63
3 31 47 63
3 1 2 3
3 2 4 5
3 4 6 7
3 6 8 9
3 8 10 11
3 10 12 13
3 12 14 15
3 14 16 17
3 16 18 19
3 18 20 21
3 20 22 23
3 22 24 25
3 24 26 27
3 26 28 29
3 28 30 31
3 30 32 33
3 32 34 35
3 34 36 37
3 36 38 39
3 38 40 41
3 40 42 43
3 42 44 45
3 44 46 47
3 46 48 49
3 48 50 51
3 50 52 53
3 52 54 55
3 54 56 57
3 56 58 59
3 58 60 61
3 4 2 1
3 1 62 4
3 62 60 4
3 60 58 56
3 56 54 60
3 54 52 60
3 52 50 48
3 48 46 44
3 44 42 36
3 42 40 36
3 40 38 36
3 36 34 28
3 34 32 28
3 32 30 28
3 28 26 24
3 24 22 28
3 22 20 28
3 20 18 16
3 16 14 12
3 12 10 4
3 10 8 4
3 8 6 4
3 52 48 36
3 48 44 36
3 20 16 4
3 16 12 4
3 4 60 52
3 36 28 4
3 28 20 4
3 60 62 63
3 62 1 0
3 63 0 3
3 3 5 63
3 5 7 63
3 7 9 11
3 11 13 15
3 15 17 19
3 19 21 23
3 23 25 27
3 27 29 23
3 29 31 23
3 31 33 35
3 35 37 39
3 39 41 43
3 43 45 47
3 47 49 51
3 51 53 55
3 55 57 59
3 59 61 55
3 61 63 55
3 7 11 15
3 15 19 31
3 19 23 31
3 31 35 47
3 35 39 47
3 39 43 47
3 47 51 63
3 51 55 63
3 63 7 15
3 63 15 31
